# AST/ASF file generated using VICON BodyLanguage
# -----------------------------------------------
:version 1.10
:name VICON
:units
  mass 1.0
  length 0.45
  angle deg
:documentation
   .ast/.asf automatically generated from VICON data using
   VICON BodyBuilder and BodyLanguage model FoxedUp or BRILLIANT.MOD
:root
   order TX TY TZ RX RY RZ
   axis XYZ
   position 0 0 0  
   orientation 0 0 0 
:bonedata
  begin
     id 1 
     name lhipjoint
     direction 0.54267 -0.795011 0.271047 
     length 2.39899 
     axis 0 0 0  XYZ
  end
  begin
     id 2 
     name lfemur
     direction 0.34202 -0.939693 0  
     length 7.49701  
     axis 0 0 20  XYZ
    dof rx ry rz
    limits (-160.0 20.0)
           (-70.0 70.0)
           (-60.0 70.0)
  end
  begin
     id 3 
     name ltibia
     direction 0.34202 -0.939693 0   
     length 8.1668   
     axis 0 0 20   XYZ
    dof rx
    limits (-10.0 170.0)
  end
  begin
     id 4 
     name lfoot
     direction 0.0736283 -0.202292 0.976554   
     length 2.13544   
     axis -90 7.62852e-016 20   XYZ
    dof rx rz
    limits (-45.0 90.0)
           (-70.0 20.0)
  end
  begin
     id 5 
     name ltoes
     direction 1.53557e-011 -4.22024e-011 1   
     length 1.07411   
     axis -90 7.62852e-016 20   XYZ
    dof rx
    limits (-90.0 20.0)
  end
  begin
     id 6 
     name rhipjoint
     direction -0.538061 -0.797813 0.272002   
     length 2.39057  
     axis 0 0 0  XYZ 
  end
  begin
     id 7 
     name rfemur
     direction -0.34202 -0.939693 0   
     length 7.50152   
     axis 0 0 -20   XYZ
    dof rx ry rz
    limits (-160.0 20.0)
           (-70.0 70.0)
           (-70.0 60.0)
  end
  begin
     id 8 
     name rtibia
     direction -0.34202 -0.939693 0   
     length 8.05793   
     axis 0 0 -20   XYZ
    dof rx
    limits (-10.0 170.0)
 end
 begin
     id 9 
     name rfoot
     direction -0.0765195 -0.210236 0.974652   
     length 2.28698  
     axis -90 -7.62852e-016 -20   XYZ
    dof rx rz
    limits (-45.0 90.0)
           (-20.0 70.0)
  end
  begin
     id 10 
     name rtoes
     direction -1.53542e-011 -4.21847e-011 1   
     length 1.14762   
     axis -90 -7.62852e-016 -20   XYZ
    dof rx
    limits (-90.0 20.0)
  end
  begin
     id 11 
     name lowerback
     direction -0.0217239 0.996592 -0.0795765   
     length 2.08176   
     axis 0 0 0   XYZ
    dof rx ry rz
    limits (-20.0 45.0)
           (-30.0 30.0)
           (-30.0 30.0)
  end
  begin
     id 12 
     name upperback
     direction -0.00563773 0.999651 -0.0258155   
     length 2.08898   
     axis 0 0 0   XYZ
    dof rx ry rz
    limits (-20.0 45.0)
           (-30.0 30.0)
           (-30.0 30.0)
  end
  begin
     id 13 
     name thorax
     direction 0.0032706 0.999923 0.0119599   
     length 2.0968   
     axis 0 0 0   XYZ
    dof rx ry rz
    limits (-20.0 45.0)
           (-30.0 30.0)
           (-30.0 30.0)
  end
  begin
     id 14 
     name lowerneck
     direction -0.0285886 0.99568 0.0883427   
     length 1.81272   
     axis 0 0 0   XYZ
    dof rx ry rz
    limits (-20.0 45.0)
           (-30.0 30.0)
           (-30.0 30.0)
  end
  begin
     id 15 
     name upperneck
     direction 0.0807535 0.97985 -0.18268   
     length 1.82518   
     axis 0 0 0   XYZ
    dof rx ry rz
    limits (-20.0 45.0)
           (-30.0 30.0)
           (-30.0 30.0)
  end
  begin
     id 16
     name head
     direction 0.0236605 0.997053 -0.0729767  
     length 1.84443  
     axis 0 0 0   XYZ
    dof rx ry rz
    limits (-20.0 45.0)
           (-30.0 30.0)
           (-30.0 30.0)
  end
  begin
     id 17 
     name lclavicle
     direction 0.918986 0.39378 -0.0200683  
     length 3.27822  
     axis 0 0 0   XYZ
    dof ry rz
    limits (-20.0 10.0)
           (0.0 20.0)
  end
  begin
     id 18 
     name lhumerus
     direction 1 -4.4897e-011 2.09544e-027   
     length 5.5568   
     axis 180 -30 -90   XYZ
    dof rx ry rz
    limits (-60.0 90.0)
           (-90.0 90.0)
           (-90.0 90.0)
  end
  begin
     id 19
     name lradius
     direction 1 -4.48957e-011 -1.27696e-026   
     length 3.63979   
     axis 180 -30 -90   XYZ
    dof rx
    limits (-10.0 170.0)
  end
  begin
     id 20
     name lwrist
     direction 1 -4.49001e-011 -1.49001e-026   
     length 1.8199   
     axis 9.0955e-015 90 90   XYZ
    dof ry
    limits (-180.0 0.0)
 end
  begin
     id 21 
     name lhand
     direction 1 -4.48709e-011 -2.9758e-026   
     length 0.569419   
     axis 1.90115e-014 90 90   XYZ
    dof rx rz
    limits (-90.0 90.0)
           (-45.0 45.0)
  end
  begin
     id 22 
     name lfingers
     direction 1 -4.49175e-011 -5.96505e-026   
     length 0.45908   
     axis 3.80223e-014 90 90   XYZ
    dof rx
    limits (0.0 90.0)
  end
  begin
     id 23
     name lthumb
     direction 0.707107 -6.34864e-011 0.707107   
     length 0.65915   
     axis -90 45 -3.84942e-014   XYZ
    dof rx rz
    limits (-45.0 45.0)
           (-45.0 45.0)
  end
  begin
     id 24 
     name rclavicle
     direction -0.911913 0.396426 -0.106115   
     length 3.46301  
     axis 0 0 0   XYZ 
    dof ry rz
    limits (-10.0 20.0)
           (-20.0 0.0)
  end
  begin
     id 25 
     name rhumerus
     direction -1 -4.48965e-011 7.78516e-028  
     length 5.34339   
     axis 180 30 90   XYZ
    dof rx ry rz
    limits (-90.0 60.0)
           (-90.0 90.0)
           (-90.0 90.0)
  end
  begin
     id 26 
     name rradius
     direction -1 -4.48948e-011 -5.79823e-027   
     length 3.65101   
     axis 180 30 90   XYZ
    dof rx
    limits (-10.0 170.0)
  end
  begin
     id 27 
     name rwrist
     direction -1 -4.48995e-011 -1.48996e-026   
     length 1.8255   
     axis 9.0955e-015 -90 -90   XYZ
    dof ry
    limits (-180.0 0.0)
  end
  begin
     id 28
     name rhand
     direction -1 -4.48957e-011 -2.97937e-026   
     length 0.694249   
     axis 1.90115e-014 -90 -90   XYZ
    dof rx rz
    limits (-90.0 90.0)
           (-45.0 45.0)
  end
  begin
     id 29
     name rfingers
     direction -1 -4.4898e-011 -5.95943e-026   
     length 0.559721   
     axis 3.80223e-014 -90 -90   XYZ
    dof rx
    limits (0.0 90.0)
  end
  begin
     id 30
     name rthumb
     direction -0.707107 -6.34969e-011 0.707107   
     length 0.803651   
     axis -90 -45 3.84942e-014   XYZ
    dof rx rz
    limits (-45.0 45.0)
           (-45.0 45.0)
  end
:hierarchy
  begin
    root lhipjoint rhipjoint lowerback
    lhipjoint lfemur
    lfemur ltibia
    ltibia lfoot
    lfoot ltoes
    rhipjoint rfemur
    rfemur rtibia
    rtibia rfoot
    rfoot rtoes
    lowerback upperback
    upperback thorax
    thorax lowerneck lclavicle rclavicle
    lowerneck upperneck
    upperneck head
    lclavicle lhumerus
    lhumerus lradius
    lradius lwrist
    lwrist lhand lthumb
    lhand lfingers
    rclavicle rhumerus
    rhumerus rradius
    rradius rwrist
    rwrist rhand rthumb
    rhand rfingers
  end

#!OML:ASF H:\Terrain\Walking\May29\JustinRory\rory.ASF
:FULLY-SPECIFIED
:DEGREES
522
root 10.7348 18.4425 -12.5866 1.82313 -8.26902 2.02469
lowerback -3.0991 -0.906884 -7.04552
upperback 0.280219 -0.90115 -2.17879
thorax 2.10527 -0.517723 1.65356
lowerneck -11.9756 -5.17462 -3.86637
upperneck 20.6156 -8.59918 9.47789
head 9.02417 -3.41809 2.86822
rclavicle -9.44227e-015 1.98785e-014
rhumerus -9.73685 -17.1773 -26.9304
rradius 103.292
rwrist -14.0646
rhand -5.059 37.2335
rfingers 7.12502
rthumb 20.7367 8.32146
lclavicle -9.44227e-015 1.98785e-014
lhumerus -26.8354 -9.16952 85.3683
lradius 93.8932
lwrist 6.54559
lhand -12.6714 12.7478
lfingers 7.12502
lthumb 13.4099 42.2962
rfemur -4.68715 12.1115 10.6419
rtibia 7.7182
rfoot -2.92052 -8.8905
rtoes -2.9772
lfemur 4.10885 -1.06113 -19.8258
ltibia 6.84624
lfoot -12.4195 7.67546
ltoes -4.02989
523
root 10.7328 18.4443 -12.5817 1.83824 -8.28577 1.97319
lowerback -3.31399 -0.795058 -6.99025
upperback 0.584471 -0.720594 -1.98856
thorax 2.52887 -0.44678 1.82277
lowerneck -13.1072 -5.2995 -4.63113
upperneck 21.1375 -8.78449 10.0803
head 9.49808 -3.44947 3.16228
rclavicle 2.29845e-014 4.29375e-014
rhumerus -9.38401 -17.6005 -26.5819
rradius 102.972
rwrist -13.8422
rhand -5.03811 37.471
rfingers 7.12502
rthumb 20.7568 8.56117
lclavicle 2.29845e-014 4.29375e-014
lhumerus -26.2143 -9.32952 85.8429
lradius 93.7457
lwrist 6.97755
lhand -12.5298 13.2439
lfingers 7.12502
lthumb 13.5464 42.7833
rfemur -4.69527 12.1274 10.7063
rtibia 7.73098
rfoot -2.97563 -8.90934
rtoes -2.48323
lfemur 4.19068 -0.992628 -19.7526
ltibia 6.72794
lfoot -12.3184 7.69265
ltoes -5.38613
524
root 10.7336 18.4461 -12.5762 1.76692 -8.35564 1.79214
lowerback -3.33021 -0.704323 -6.7738
upperback 0.592711 -0.610724 -1.82435
thorax 2.53623 -0.39051 1.8781
lowerneck -12.5707 -5.42842 -4.72233
upperneck 20.7338 -8.86337 9.87423
head 9.25571 -3.54325 3.10222
rclavicle 1.08089e-014 2.62396e-014
rhumerus -9.33006 -17.3725 -26.3188
rradius 102.732
rwrist -13.872
rhand -5.10863 37.7391
rfingers 7.12502
rthumb 20.689 8.82185
lclavicle 1.08089e-014 2.62396e-014
lhumerus -26.396 -9.29325 86.1788
lradius 93.7378
lwrist 7.35792
lhand -12.4556 13.0137
lfingers 7.12502
lthumb 13.6179 42.5482
rfemur -4.56039 12.2163 10.9245
rtibia 7.67864
rfoot -3.04461 -8.87868
rtoes -2.1305
lfemur 4.33668 -0.867539 -19.5587
ltibia 6.73089
lfoot -12.293 7.64546
ltoes -4.93246
525
root 10.7327 18.4468 -12.5818 1.77228 -8.37992 1.65805
lowerback -3.21072 -0.749687 -6.65941
upperback 0.297384 -0.70479 -1.70029
thorax 2.17046 -0.420241 1.94144
lowerneck -11.4617 -5.37548 -5.02099
upperneck 20.6374 -8.75645 9.91998
head 9.01935 -3.55247 3.2053
rclavicle 9.56651e-015 2.46493e-014
rhumerus -9.28734 -16.5436 -26.388
rradius 102.628
rwrist -13.9489
rhand -5.77262 37.872
rfingers 7.12502
rthumb 20.0509 8.88655
lclavicle 9.56651e-015 2.46493e-014
lhumerus -27.146 -9.15578 86.1081
lradius 93.8558
lwrist 7.77484
lhand -12.6122 12.4108
lfingers 7.12502
lthumb 13.467 41.9554
rfemur -4.52593 12.2473 11.0992
rtibia 7.62608
rfoot -2.97194 -8.8826
rtoes -2.40213
lfemur 4.30829 -0.789923 -19.3937
ltibia 6.75371
lfoot -12.3157 7.57733
ltoes -4.13648
526
root 10.7298 18.447 -12.5843 1.82333 -8.48653 1.65827
lowerback -3.10518 -0.492527 -6.60677
upperback 0.554877 -0.356961 -1.85565
thorax 2.34744 -0.255704 1.76914
lowerneck -12.7927 -5.61411 -4.41297
upperneck 21.0309 -9.20788 9.81583
head 9.41318 -3.66963 2.98289
rclavicle -2.56184e-014 2.70347e-014
rhumerus -9.47909 -17.2197 -26.4267
rradius 102.472
rwrist -13.8361
rhand -6.78571 37.8694
rfingers 7.12502
rthumb 19.0769 8.78501
lclavicle -2.56184e-014 2.70347e-014
lhumerus -26.369 -9.85598 85.9279
lradius 93.7005
lwrist 8.07238
lhand -12.7044 12.1615
lfingers 7.12502
lthumb 13.3781 41.712
rfemur -4.6282 12.3454 11.1083
rtibia 7.66089
rfoot -2.85969 -8.93176
rtoes -2.82585
lfemur 4.28666 -0.633114 -19.3689
ltibia 6.65634
lfoot -12.327 7.47302
ltoes -3.76712
527
root 10.727 18.449 -12.5787 1.86736 -8.3252 1.95252
lowerback -3.06443 -0.548225 -6.78916
upperback 0.486448 -0.428092 -2.01665
thorax 2.25984 -0.288714 1.70152
lowerneck -13.0997 -5.55587 -3.93159
upperneck 21.2398 -9.21586 9.66401
head 9.51483 -3.63445 2.84373
rclavicle -6.53505e-015 6.36111e-015
rhumerus -9.44274 -17.0113 -26.5382
rradius 102.31
rwrist -13.6509
rhand -7.47684 37.6931
rfingers 7.12502
rthumb 18.4122 8.54451
lclavicle -6.53505e-015 6.36111e-015
lhumerus -26.3696 -9.90036 86.0907
lradius 93.5205
lwrist 7.89789
lhand -13.0009 12.1499
lfingers 7.12502
lthumb 13.0924 41.7189
rfemur -4.69805 12.1581 10.7798
rtibia 7.74652
rfoot -2.96437 -8.93739
rtoes -2.65584
lfemur 4.25724 -0.75067 -19.6784
ltibia 6.53555
lfoot -12.2678 7.41526
ltoes -3.8671
528
root 10.7249 18.4486 -12.5685 1.7946 -8.21252 2.20983
lowerback -3.00458 -0.790589 -6.98213
upperback 0.388852 -0.752729 -2.10155
thorax 2.15272 -0.447144 1.70591
lowerneck -12.9826 -5.48233 -3.97573
upperneck 21.3718 -9.17463 9.87518
head 9.54935 -3.59817 2.93395
rclavicle 5.04416e-015 -3.4191e-014
rhumerus -8.88493 -16.3904 -27.0763
rradius 102.107
rwrist -13.5121
rhand -7.7408 37.4687
rfingers 7.12502
rthumb 18.1582 8.29631
lclavicle 5.04416e-015 -3.4191e-014
lhumerus -26.6493 -9.37416 85.9912
lradius 93.4679
lwrist 7.88015
lhand -13.2958 11.9408
lfingers 7.12502
lthumb 12.8081 41.5279
rfemur -4.64248 12.0394 10.5096
rtibia 7.86092
rfoot -3.15575 -8.95201
rtoes -2.5963
lfemur 4.41118 -0.818712 -19.9632
ltibia 6.39687
lfoot -12.15 7.42784
ltoes -4.67615
529
root 10.7214 18.4499 -12.5707 1.85938 -8.31721 2.15093
lowerback -3.139 -0.854071 -6.99917
upperback 0.395123 -0.826843 -1.9399
thorax 2.24359 -0.487868 1.87645
lowerneck -12.7311 -5.80597 -5.34637
upperneck 21.3131 -9.57233 10.8718
head 9.63657 -3.80124 3.46334
rclavicle -2.26863e-014 2.38542e-014
rhumerus -8.24087 -16.0847 -27.2838
rradius 101.808
rwrist -13.6139
rhand -7.62355 37.6285
rfingers 7.12502
rthumb 18.271 8.46661
lclavicle -2.26863e-014 2.38542e-014
lhumerus -26.7091 -8.92949 86.1082
lradius 93.4852
lwrist 7.9572
lhand -13.541 11.6733
lfingers 7.12502
lthumb 12.5716 41.2751
rfemur -4.8011 12.1375 10.5832
rtibia 7.99244
rfoot -3.17948 -8.96731
rtoes -2.69645
lfemur 4.4662 -0.662419 -19.8789
ltibia 6.19749
lfoot -12.0122 7.40303
ltoes -5.72215
530
root 10.7171 18.4536 -12.5752 2.01638 -8.47439 2.02203
lowerback -3.28338 -0.669542 -6.90412
upperback 0.42219 -0.571072 -1.90312
thorax 2.33047 -0.362701 1.87351
lowerneck -13.1886 -5.46858 -3.76978
upperneck 21.3241 -9.12683 9.61246
head 9.54401 -3.58038 2.80949
rclavicle -2.02263e-014 -1.51076e-014
rhumerus -8.28356 -16.2263 -27.2232
rradius 101.605
rwrist -13.8428
rhand -7.29075 37.9585
rfingers 7.12502
rthumb 18.5912 8.82686
lclavicle -2.02263e-014 -1.51076e-014
lhumerus -26.5078 -9.33495 86.2192
lradius 93.4045
lwrist 8.0834
lhand -14.0957 11.287
lfingers 7.12502
lthumb 12.0369 40.9208
rfemur -5.04532 12.2776 10.7144
rtibia 8.06782
rfoot -3.09918 -8.9559
rtoes -2.62121
lfemur 4.3867 -0.451807 -19.7069
ltibia 6.04057
lfoot -11.9504 7.36922
ltoes -6.38721
531
root 10.7136 18.4507 -12.569 2.0001 -8.47654 2.09815
lowerback -3.31349 -0.600021 -6.94143
upperback 0.432754 -0.471847 -1.99152
thorax 2.34972 -0.314073 1.80805
lowerneck -13.4044 -5.3518 -2.94279
upperneck 21.3592 -9.04506 9.1718
head 9.53016 -3.51376 2.52533
rclavicle -2.42517e-014 -4.77083e-015
rhumerus -8.3363 -16.2174 -27.3608
rradius 101.531
rwrist -13.9795
rhand -7.04485 38.0649
rfingers 7.12502
rthumb 18.8277 8.95606
lclavicle -2.42517e-014 -4.77083e-015
lhumerus -26.5956 -9.59055 86.189
lradius 93.4505
lwrist 8.21513
lhand -14.0571 11.1964
lfingers 7.12502
lthumb 12.074 40.828
rfemur -4.9517 12.2724 10.6263
rtibia 7.9213
rfoot -3.04645 -8.94254
rtoes -2.058
lfemur 4.30582 -0.400707 -19.7937
ltibia 6.24431
lfoot -12.0139 7.37073
ltoes -5.85975
532
root 10.7148 18.4473 -12.5637 1.88923 -8.41442 2.25122
lowerback -3.23404 -0.638912 -7.00682
upperback 0.390671 -0.530877 -1.9833
thorax 2.26705 -0.341052 1.85075
lowerneck -13.3301 -5.44863 -3.40363
upperneck 21.5159 -9.1548 9.41737
head 9.61324 -3.57366 2.67542
rclavicle 3.36443e-014 -2.38542e-015
rhumerus -8.06527 -15.9683 -27.4583
rradius 101.409
rwrist -14.0166
rhand -6.97922 38.2674
rfingers 7.12502
rthumb 18.8908 9.16472
lclavicle 3.36443e-014 -2.38542e-015
lhumerus -26.9149 -9.47736 86.3095
lradius 93.5739
lwrist 8.26004
lhand -12.9506 11.7968
lfingers 7.12502
lthumb 13.1409 41.3627
rfemur -4.51387 12.2069 10.4447
rtibia 7.30421
rfoot -2.8396 -8.88751
rtoes -1.69591
lfemur 3.99616 -0.413503 -20.0235
ltibia 7.09552
lfoot -12.4224 7.24701
ltoes -4.66648
533
root 10.7125 18.4543 -12.5722 2.0122 -8.49241 1.83858
lowerback -3.15154 -0.69864 -6.56274
upperback 0.19916 -0.64941 -1.78496
thorax 2.0286 -0.385297 1.80474
lowerneck -12.853 -5.51892 -4.02548
upperneck 21.5048 -9.17788 9.6572
head 9.56145 -3.62656 2.87031
rclavicle -1.13307e-014 2.70347e-014
rhumerus -7.5714 -15.6124 -27.7643
rradius 101.258
rwrist -13.9185
rhand -6.7894 38.457
rfingers 7.12502
rthumb 19.0734 9.37221
lclavicle -1.13307e-014 2.70347e-014
lhumerus -27.2021 -9.29959 86.3828
lradius 93.5416
lwrist 8.30617
lhand -10.5924 13.127
lfingers 7.12502
lthumb 15.4132 42.5324
rfemur -4.48092 12.2895 10.9041
rtibia 6.98279
rfoot -2.59005 -8.84371
rtoes -2.02174
lfemur 3.72936 -0.272535 -19.5728
ltibia 7.43079
lfoot -12.608 7.10716
ltoes -4.62156
534
root 10.6978 18.4662 -12.6025 2.47489 -8.75919 0.566811
lowerback -3.05894 -0.585288 -5.43065
upperback 0.0208415 -0.562344 -1.42242
thorax 1.77653 -0.322897 1.55406
lowerneck -12.7401 -5.60059 -4.13634
upperneck 21.4023 -9.30106 9.82321
head 9.52849 -3.68262 2.9317
rclavicle -8.69683e-017 -2.06736e-014
rhumerus -7.22746 -15.6815 -28.2171
rradius 101.215
rwrist -13.7054
rhand -6.54155 38.2474
rfingers 7.12502
rthumb 19.3117 9.18627
lclavicle -8.69683e-017 -2.06736e-014
lhumerus -27.1064 -9.37715 86.3328
lradius 93.3856
lwrist 8.23445
lhand -12.4892 12.5579
lfingers 7.12502
lthumb 13.5855 42.0946
rfemur -4.5327 12.577 12.3175
rtibia 6.06871
rfoot -1.90072 -8.77273
rtoes -1.99725
lfemur 2.87129 0.0922477 -18.1262
ltibia 8.27248
lfoot -12.9406 6.98062
ltoes -4.5225
535
root 10.6953 18.4589 -12.5784 2.1466 -8.78147 1.27544
lowerback -3.13458 -1.01987 -6.1642
upperback -0.154827 -1.1187 -1.31449
thorax 1.69178 -0.601328 2.04797
lowerneck -11.8082 -5.17596 -5.01288
upperneck 21.3251 -8.57695 10.042
head 9.31226 -3.42854 3.26961
rclavicle 1.54866e-014 -5.56597e-015
rhumerus -5.829 -14.4985 -28.9471
rradius 101.101
rwrist -13.7534
rhand -6.78954 38.0679
rfingers 7.12502
rthumb 19.0732 8.98311
lclavicle 1.54866e-014 -5.56597e-015
lhumerus -27.956 -8.02613 86.4346
lradius 93.4665
lwrist 8.33594
lhand -12.0384 12.7499
lfingers 7.12502
lthumb 14.02 42.2571
rfemur -3.99856 12.5819 11.5439
rtibia 5.69572
rfoot -1.99869 -8.77395
rtoes -1.43515
lfemur 3.08776 0.136291 -18.9565
ltibia 8.56266
lfoot -13.3249 6.90514
ltoes -3.48488
